<?xml version="1.0" standalone="no"?>
<!DOCTYPE svg PUBLIC "-//W3C//DTD SVG 20010904//EN"
 "http://www.w3.org/TR/2001/REC-SVG-20010904/DTD/svg10.dtd">
<svg version="1.0" xmlns="http://www.w3.org/2000/svg"
 width="500.000000pt" height="500.000000pt" viewBox="0 0 500.000000 500.000000"
 preserveAspectRatio="xMidYMid meet">

<g transform="translate(0.000000,500.000000) scale(0.100000,-0.100000)"
fill="#000000" stroke="none">
<path d="M1402 2638 c-15 -18 1 -41 24 -36 23 4 26 41 3 46 -9 1 -21 -3 -27
-10z"/>
<path d="M1774 2636 c-8 -21 3 -36 27 -36 15 0 20 6 17 22 -4 27 -35 37 -44
14z"/>
<path d="M501 2583 c1 -45 1 -46 10 -18 10 33 34 55 61 55 16 0 18 -11 18
-135 0 -131 -1 -136 -22 -145 -17 -6 -5 -9 47 -9 52 0 64 3 48 9 -22 9 -23 14
-23 145 0 124 2 135 18 135 27 0 51 -22 61 -55 9 -28 9 -27 10 18 l1 47 -115
0 -115 0 1 -47z"/>
<path d="M768 2538 c7 -7 12 -40 12 -79 0 -84 14 -125 45 -133 26 -7 75 11 75
28 0 6 -5 5 -12 -2 -7 -7 -22 -12 -34 -12 -28 0 -34 22 -34 128 l0 82 -32 0
c-25 0 -29 -3 -20 -12z"/>
<path d="M893 2535 c16 -11 18 -26 17 -92 -3 -119 -5 -113 38 -113 30 1 34 3
20 11 -15 8 -18 25 -18 109 l0 100 -37 0 c-35 -1 -36 -2 -20 -15z"/>
<path d="M1013 2536 c14 -11 17 -29 17 -99 0 -71 -3 -88 -17 -96 -14 -8 -5
-10 37 -10 44 0 51 2 37 10 -16 9 -18 23 -17 87 3 128 5 122 -37 122 -34 -1
-36 -2 -20 -14z"/>
<path d="M1098 2539 c-10 -5 -18 -15 -18 -21 0 -6 9 -3 21 8 15 14 24 16 37 8
26 -17 30 -173 6 -191 -15 -11 -10 -13 37 -13 41 1 50 3 37 11 -28 16 -26 151
3 180 46 46 74 -2 64 -111 -3 -35 -11 -68 -18 -72 -7 -4 13 -7 43 -7 30 1 48
3 39 6 -22 5 -29 33 -29 119 0 41 -5 75 -12 82 -17 17 -68 15 -89 -4 -17 -15
-19 -15 -34 0 -18 18 -61 21 -87 5z"/>
<path d="M1388 2538 c8 -8 12 -46 12 -104 0 -80 -2 -93 -17 -97 -10 -3 9 -5
42 -5 33 0 53 2 45 5 -26 10 -30 25 -30 121 l0 92 -32 0 c-25 0 -29 -3 -20
-12z"/>
<path d="M1513 2532 c25 -27 24 -177 0 -191 -14 -8 -5 -10 37 -10 42 0 51 2
38 10 -14 8 -18 24 -18 74 0 72 14 112 42 121 37 11 48 -13 48 -102 0 -68 -3
-85 -17 -93 -14 -8 -5 -10 37 -10 42 0 51 2 38 10 -15 8 -18 25 -18 94 0 63
-4 88 -16 99 -22 22 -70 20 -94 -4 l-20 -20 0 20 c0 16 -7 20 -37 20 -34 0
-35 -1 -20 -18z"/>
<path d="M1763 2532 c25 -27 24 -177 0 -191 -14 -8 -5 -10 37 -10 42 0 51 2
38 10 -15 8 -18 25 -18 109 l0 100 -37 0 c-34 0 -35 -1 -20 -18z"/>
<path d="M1883 2536 c14 -11 17 -29 17 -99 0 -71 -3 -88 -17 -96 -14 -8 -5
-10 37 -10 44 0 51 2 37 10 -16 9 -18 23 -17 87 3 128 5 122 -37 122 -34 -1
-36 -2 -20 -14z"/>
<path d="M1968 2539 c-10 -5 -18 -15 -18 -21 0 -6 9 -3 19 6 11 10 28 16 38
14 16 -3 18 -16 21 -97 2 -69 -1 -97 -10 -103 -8 -4 7 -8 37 -8 39 1 46 3 33
11 -15 8 -18 25 -18 97 0 55 -4 92 -12 100 -15 15 -66 15 -90 1z"/>
<path d="M2133 2532 c13 -14 17 -38 17 -100 0 -76 2 -83 25 -98 26 -17 58 -12
88 14 15 14 17 13 17 -1 0 -13 9 -17 38 -17 30 1 34 3 20 11 -15 8 -18 25 -18
109 l0 100 -36 0 c-34 0 -35 -1 -20 -22 33 -46 12 -173 -29 -184 -40 -10 -45
2 -45 107 l0 99 -37 0 c-34 0 -35 -1 -20 -18z"/>
</g>
</svg>
